<svg xmlns="http://www.w3.org/2000/svg" width="193" height="220" viewBox="0 0 193 220" fill="none"><path fill-rule="evenodd" clip-rule="evenodd" d="M192.258 137.948C189.755 138.343 187.253 138.744 184.749 139.141C180.517 139.812 176.279 140.468 172.028 141.047C166.908 141.767 161.785 142.467 156.661 143.147L156.65 143.149C142.031 144.525 127.449 147.35 118.736 159.248C118.732 159.254 118.726 159.26 118.722 159.266C106.097 173.374 110.312 193.204 111.258 212.027L100.129 218.454C97.6538 219.883 94.604 219.883 92.1289 218.454L81.8008 212.49C81.8856 206.576 82.1574 200.684 82.584 194.787C84.0121 180.68 81.9915 166.094 71.6221 156.368C63.5139 147.281 51.4403 144.871 39.168 143.557C31.1135 142.553 23.064 141.498 15.0127 140.392C11.5898 139.888 8.20222 139.286 4.8125 138.713C3.20859 138.449 1.60495 138.173 0 137.909V103.374C3.75004 105.032 7.53041 106.622 11.3379 108.161C18.8669 111.235 25.9435 115.1 33.2441 118.118C48.7037 124.53 62.9826 133.526 78.7295 137.064C91.7903 139.532 105.974 139.347 118.733 135.843C128.079 133.06 136.842 128.507 145.901 124.245L145.918 124.237C157.204 119.068 168.435 113.778 179.605 108.364L179.614 108.359C183.813 106.361 188.082 104.615 192.258 102.799V137.948ZM0 157.927C11.0985 159.521 22.366 159.763 33.5781 161.473C39.2729 162.353 45.3924 161.947 51.3301 164.064L51.3018 164.054C60.5019 166.441 65.5523 176.649 65.543 185.363C65.8565 191.237 65.2327 197.014 64.7959 202.672L4 167.572C1.52495 166.143 5.32524e-05 163.502 0 160.644V157.927ZM192.258 160.644C192.258 163.502 190.733 166.143 188.258 167.572L128.118 202.293C127.851 196.235 127.543 190.158 127.415 184.056C127.215 178.564 129.488 173.001 133.28 169.139C135.472 166.839 138.207 165.072 141.195 164.018C146.08 162.476 150.89 162.325 155.623 161.825L155.612 161.826C163.884 160.912 172.157 160.007 180.433 159.111C184.408 158.695 188.424 158.551 192.258 157.861V160.644ZM79.9463 164.034C80.1609 164.417 80.3674 164.802 80.5654 165.187H80.5664C80.3683 164.802 80.1618 164.417 79.9473 164.034H79.9463ZM144.827 164.328C144.764 164.341 144.701 164.355 144.638 164.369C144.993 164.294 145.356 164.221 145.726 164.154L144.827 164.328ZM148.541 163.71L147.589 163.846C147.941 163.794 148.296 163.744 148.651 163.696C148.615 163.701 148.578 163.705 148.541 163.71ZM152.323 163.258C152.253 163.266 152.183 163.274 152.113 163.282C153.415 163.14 154.653 163.015 155.743 162.892L152.323 163.258ZM74.207 156.192C74.1771 156.159 74.1473 156.126 74.1172 156.093L73.5928 155.532C73.8012 155.751 74.0057 155.972 74.207 156.192ZM94.8496 140.658C95.2775 140.662 95.7064 140.666 96.1357 140.665C95.7064 140.666 95.2775 140.662 94.8496 140.658ZM92.041 140.592C92.4514 140.608 92.8633 140.619 93.2764 140.629C92.4096 140.607 91.548 140.576 90.6943 140.533L92.041 140.592ZM5.82031 138.164C6.98879 138.319 8.13796 138.473 9.24219 138.621C7.0335 138.326 4.64553 138.002 2.28125 137.701L5.82031 138.164ZM56.627 131.125L58.0811 131.798C57.111 131.354 56.1418 130.9 55.1738 130.442C55.6579 130.671 56.1423 130.899 56.627 131.125ZM14.3809 45.9594C32.6612 64.4722 49.3425 85.31 73.5088 93.9135C81.5707 96.7749 90.1621 97.2246 98.9424 97.2104C125.297 98.2441 146.74 79.9883 164.663 61.4272C168.42 57.6556 172.007 53.6196 175.972 49.894L175.944 49.9223C177 48.8482 178.046 47.7566 179.096 46.6635L188.258 51.9536C190.733 53.3826 192.258 56.0233 192.258 58.8813V83.2075C189.574 84.4158 186.896 85.6088 184.248 86.8383L156.076 100.18L156.062 100.186C148.085 103.869 140.108 107.557 132.128 111.252C126.293 113.925 120.308 117.28 113.673 118.723C101.23 121.922 87.6425 121.694 75.3789 117.706C69.1896 115.878 63.7415 112.544 58.2129 110.043C42.7394 103.063 27.4769 95.6181 12.457 87.7231C11.8588 87.4086 11.2606 87.0932 10.668 86.7797C7.17812 84.989 3.57461 83.361 0 81.6606V58.8813C5.3546e-05 56.0233 1.52495 53.3826 4 51.9536L14.3809 45.9594ZM98.8945 119.424L99.0947 119.416C99.2281 119.41 99.3615 119.401 99.4951 119.393C99.2947 119.404 99.0946 119.415 98.8945 119.424ZM101.045 119.286C101.158 119.276 101.272 119.269 101.386 119.259L101.578 119.241C101.4 119.257 101.222 119.271 101.045 119.286ZM104.637 118.9L104.868 118.871C104.968 118.857 105.069 118.841 105.169 118.827C104.991 118.852 104.814 118.876 104.637 118.9ZM106.192 118.675C106.536 118.622 106.882 118.568 107.229 118.51C106.882 118.568 106.536 118.622 106.192 118.675ZM125.124 112.922C125.331 112.823 125.538 112.724 125.747 112.623C125.538 112.724 125.331 112.823 125.124 112.922ZM130.254 110.456C128.761 111.157 127.398 111.824 126.09 112.457C126.335 112.339 126.582 112.221 126.831 112.1C127.914 111.575 129.041 111.026 130.255 110.456H130.254ZM5.99023 107.257C6.05024 107.284 6.11075 107.31 6.1709 107.336C5.59022 107.08 5.01542 106.826 4.44629 106.571L5.99023 107.257ZM85.0527 98.5688C85.3167 98.6005 85.5807 98.63 85.8447 98.6586C85.3167 98.6014 84.7889 98.5381 84.2607 98.4682L85.0527 98.5688ZM77.0391 97.059C77.312 97.1305 77.5842 97.1992 77.8555 97.2661C77.3673 97.1458 76.8768 97.017 76.3828 96.8813C76.6023 96.9416 76.8208 97.0018 77.0391 97.059ZM75.3877 96.6C75.7207 96.698 76.0527 96.7906 76.3828 96.8813C76.053 96.7906 75.7214 96.6979 75.3887 96.6H75.3877ZM161.579 36.5502C161.218 36.958 160.854 37.3644 160.482 37.7641C159.132 39.2164 157.792 40.6853 156.46 42.1577C140.738 59.8968 121.779 81.1922 95.166 79.8149C66.4635 79.3066 47.875 55.1487 29.8486 37.0287L58.9678 20.2162C59.7329 21.6608 60.5077 23.1041 61.2871 24.5493C67.3494 35.7866 73.0641 48.5286 84.3926 53.7621C91.4215 56.6117 100.06 56.7968 107.197 54.2368C114.734 51.4825 119.769 44.7954 123.896 37.6957C126.04 34.1049 128.224 30.6592 129.992 27.0053L130.001 26.9887C131.127 24.7557 132.198 22.486 133.268 20.2045L161.579 36.5502ZM77.6934 74.7221C77.5389 74.6617 77.3862 74.5973 77.2324 74.5356C77.3862 74.5973 77.5389 74.6617 77.6934 74.7221ZM75.5391 73.8256C75.8751 73.9735 76.2123 74.1197 76.5518 74.2612C76.7774 74.3552 77.0052 74.4444 77.2324 74.5356C76.6634 74.3072 76.0986 74.0717 75.5391 73.8256ZM73.0244 72.6469C73.1358 72.7024 73.2476 72.7572 73.3594 72.812C73.3062 72.7859 73.2523 72.761 73.1992 72.7348C73.1408 72.706 73.0827 72.6759 73.0244 72.6469ZM121.468 44.27C121.269 44.5508 121.07 44.83 120.867 45.1049L121.32 44.4809C121.37 44.4113 121.418 44.34 121.468 44.27ZM122.041 43.4428C122.242 43.1481 122.443 42.8516 122.641 42.5512C122.443 42.8516 122.242 43.148 122.041 43.4428ZM92.1289 1.07172C94.604 -0.357239 97.6538 -0.357239 100.129 1.07172L118.076 11.433C113.879 20.8469 109.045 29.9073 100.415 37.3647L99.9746 37.5561C97.7229 38.4644 95.1293 38.4941 92.8652 37.6245C82.9575 31.0995 80.29 20.8858 75.8848 11.7983C75.7233 11.4426 75.566 11.0832 75.4111 10.7221L92.1289 1.07172ZM128.366 33.1596C128.618 32.7315 128.867 32.3019 129.115 31.8657V31.8647C128.867 32.3011 128.618 32.7312 128.366 33.1596Z" fill="#D9D9D9"></path><path fill-rule="evenodd" clip-rule="evenodd" d="M192.258 137.948C189.755 138.343 187.253 138.744 184.749 139.141C180.517 139.812 176.279 140.468 172.028 141.047C166.908 141.767 161.785 142.467 156.661 143.147L156.65 143.149C142.031 144.525 127.449 147.35 118.736 159.248C118.732 159.254 118.726 159.26 118.722 159.266C106.097 173.374 110.312 193.204 111.258 212.027L100.129 218.454C97.6538 219.883 94.604 219.883 92.1289 218.454L81.8008 212.49C81.8856 206.576 82.1574 200.684 82.584 194.787C84.0121 180.68 81.9915 166.094 71.6221 156.368C63.5139 147.281 51.4403 144.871 39.168 143.557C31.1135 142.553 23.064 141.498 15.0127 140.392C11.5898 139.888 8.20222 139.286 4.8125 138.713C3.20859 138.449 1.60495 138.173 0 137.909V103.374C3.75004 105.032 7.53041 106.622 11.3379 108.161C18.8669 111.235 25.9435 115.1 33.2441 118.118C48.7037 124.53 62.9826 133.526 78.7295 137.064C91.7903 139.532 105.974 139.347 118.733 135.843C128.079 133.06 136.842 128.507 145.901 124.245L145.918 124.237C157.204 119.068 168.435 113.778 179.605 108.364L179.614 108.359C183.813 106.361 188.082 104.615 192.258 102.799V137.948ZM0 157.927C11.0985 159.521 22.366 159.763 33.5781 161.473C39.2729 162.353 45.3924 161.947 51.3301 164.064L51.3018 164.054C60.5019 166.441 65.5523 176.649 65.543 185.363C65.8565 191.237 65.2327 197.014 64.7959 202.672L4 167.572C1.52495 166.143 5.32524e-05 163.502 0 160.644V157.927ZM192.258 160.644C192.258 163.502 190.733 166.143 188.258 167.572L128.118 202.293C127.851 196.235 127.543 190.158 127.415 184.056C127.215 178.564 129.488 173.001 133.28 169.139C135.472 166.839 138.207 165.072 141.195 164.018C146.08 162.476 150.89 162.325 155.623 161.825L155.612 161.826C163.884 160.912 172.157 160.007 180.433 159.111C184.408 158.695 188.424 158.551 192.258 157.861V160.644ZM79.9463 164.034C80.1609 164.417 80.3674 164.802 80.5654 165.187H80.5664C80.3683 164.802 80.1618 164.417 79.9473 164.034H79.9463ZM144.827 164.328C144.764 164.341 144.701 164.355 144.638 164.369C144.993 164.294 145.356 164.221 145.726 164.154L144.827 164.328ZM148.541 163.71L147.589 163.846C147.941 163.794 148.296 163.744 148.651 163.696C148.615 163.701 148.578 163.705 148.541 163.71ZM152.323 163.258C152.253 163.266 152.183 163.274 152.113 163.282C153.415 163.14 154.653 163.015 155.743 162.892L152.323 163.258ZM74.207 156.192C74.1771 156.159 74.1473 156.126 74.1172 156.093L73.5928 155.532C73.8012 155.751 74.0057 155.972 74.207 156.192ZM94.8496 140.658C95.2775 140.662 95.7064 140.666 96.1357 140.665C95.7064 140.666 95.2775 140.662 94.8496 140.658ZM92.041 140.592C92.4514 140.608 92.8633 140.619 93.2764 140.629C92.4096 140.607 91.548 140.576 90.6943 140.533L92.041 140.592ZM5.82031 138.164C6.98879 138.319 8.13796 138.473 9.24219 138.621C7.0335 138.326 4.64553 138.002 2.28125 137.701L5.82031 138.164ZM56.627 131.125L58.0811 131.798C57.111 131.354 56.1418 130.9 55.1738 130.442C55.6579 130.671 56.1423 130.899 56.627 131.125ZM14.3809 45.9594C32.6612 64.4722 49.3425 85.31 73.5088 93.9135C81.5707 96.7749 90.1621 97.2246 98.9424 97.2104C125.297 98.2441 146.74 79.9883 164.663 61.4272C168.42 57.6556 172.007 53.6196 175.972 49.894L175.944 49.9223C177 48.8482 178.046 47.7566 179.096 46.6635L188.258 51.9536C190.733 53.3826 192.258 56.0233 192.258 58.8813V83.2075C189.574 84.4158 186.896 85.6088 184.248 86.8383L156.076 100.18L156.062 100.186C148.085 103.869 140.108 107.557 132.128 111.252C126.293 113.925 120.308 117.28 113.673 118.723C101.23 121.922 87.6425 121.694 75.3789 117.706C69.1896 115.878 63.7415 112.544 58.2129 110.043C42.7394 103.063 27.4769 95.6181 12.457 87.7231C11.8588 87.4086 11.2606 87.0932 10.668 86.7797C7.17812 84.989 3.57461 83.361 0 81.6606V58.8813C5.3546e-05 56.0233 1.52495 53.3826 4 51.9536L14.3809 45.9594ZM98.8945 119.424L99.0947 119.416C99.2281 119.41 99.3615 119.401 99.4951 119.393C99.2947 119.404 99.0946 119.415 98.8945 119.424ZM101.045 119.286C101.158 119.276 101.272 119.269 101.386 119.259L101.578 119.241C101.4 119.257 101.222 119.271 101.045 119.286ZM104.637 118.9L104.868 118.871C104.968 118.857 105.069 118.841 105.169 118.827C104.991 118.852 104.814 118.876 104.637 118.9ZM106.192 118.675C106.536 118.622 106.882 118.568 107.229 118.51C106.882 118.568 106.536 118.622 106.192 118.675ZM125.124 112.922C125.331 112.823 125.538 112.724 125.747 112.623C125.538 112.724 125.331 112.823 125.124 112.922ZM130.254 110.456C128.761 111.157 127.398 111.824 126.09 112.457C126.335 112.339 126.582 112.221 126.831 112.1C127.914 111.575 129.041 111.026 130.255 110.456H130.254ZM5.99023 107.257C6.05024 107.284 6.11075 107.31 6.1709 107.336C5.59022 107.08 5.01542 106.826 4.44629 106.571L5.99023 107.257ZM85.0527 98.5688C85.3167 98.6005 85.5807 98.63 85.8447 98.6586C85.3167 98.6014 84.7889 98.5381 84.2607 98.4682L85.0527 98.5688ZM77.0391 97.059C77.312 97.1305 77.5842 97.1992 77.8555 97.2661C77.3673 97.1458 76.8768 97.017 76.3828 96.8813C76.6023 96.9416 76.8208 97.0018 77.0391 97.059ZM75.3877 96.6C75.7207 96.698 76.0527 96.7906 76.3828 96.8813C76.053 96.7906 75.7214 96.6979 75.3887 96.6H75.3877ZM161.579 36.5502C161.218 36.958 160.854 37.3644 160.482 37.7641C159.132 39.2164 157.792 40.6853 156.46 42.1577C140.738 59.8968 121.779 81.1922 95.166 79.8149C66.4635 79.3066 47.875 55.1487 29.8486 37.0287L58.9678 20.2162C59.7329 21.6608 60.5077 23.1041 61.2871 24.5493C67.3494 35.7866 73.0641 48.5286 84.3926 53.7621C91.4215 56.6117 100.06 56.7968 107.197 54.2368C114.734 51.4825 119.769 44.7954 123.896 37.6957C126.04 34.1049 128.224 30.6592 129.992 27.0053L130.001 26.9887C131.127 24.7557 132.198 22.486 133.268 20.2045L161.579 36.5502ZM77.6934 74.7221C77.5389 74.6617 77.3862 74.5973 77.2324 74.5356C77.3862 74.5973 77.5389 74.6617 77.6934 74.7221ZM75.5391 73.8256C75.8751 73.9735 76.2123 74.1197 76.5518 74.2612C76.7774 74.3552 77.0052 74.4444 77.2324 74.5356C76.6634 74.3072 76.0986 74.0717 75.5391 73.8256ZM73.0244 72.6469C73.1358 72.7024 73.2476 72.7572 73.3594 72.812C73.3062 72.7859 73.2523 72.761 73.1992 72.7348C73.1408 72.706 73.0827 72.6759 73.0244 72.6469ZM121.468 44.27C121.269 44.5508 121.07 44.83 120.867 45.1049L121.32 44.4809C121.37 44.4113 121.418 44.34 121.468 44.27ZM122.041 43.4428C122.242 43.1481 122.443 42.8516 122.641 42.5512C122.443 42.8516 122.242 43.148 122.041 43.4428ZM92.1289 1.07172C94.604 -0.357239 97.6538 -0.357239 100.129 1.07172L118.076 11.433C113.879 20.8469 109.045 29.9073 100.415 37.3647L99.9746 37.5561C97.7229 38.4644 95.1293 38.4941 92.8652 37.6245C82.9575 31.0995 80.29 20.8858 75.8848 11.7983C75.7233 11.4426 75.566 11.0832 75.4111 10.7221L92.1289 1.07172ZM128.366 33.1596C128.618 32.7315 128.867 32.3019 129.115 31.8657V31.8647C128.867 32.3011 128.618 32.7312 128.366 33.1596Z" fill="url(#paint0_linear_139_449)"></path><defs>
<linearGradient id="paint0_linear_139_449" x1="17.5956" y1="-1.91902" x2="126" y2="164.416" gradientUnits="userSpaceOnUse">
<stop stop-color="#1B83FE"></stop>
<stop offset="1" stop-color="#5F68FA"></stop>
</linearGradient>
</defs></svg>